# xmcd
#
# Track frame offsets: 
#        151
#        13215
#        27324
#        42930
#        60037
#        81955
#        106568
#        127284
#        144922
#        156925
#        175550
#        193929
#
# Disc length: 2640 seconds
#
# Revision: 0
# Processed by: cddbd v1.5.2PL0 Copyright (c) Steve Scherf et al.
# Submitted via: ExactAudioCopyFreeDBPlugin 1.0
#
DISCID=960a4e0c
DTITLE=Eva Cassidy - Simply Eva
DYEAR=2011
DGENRE=Pop-Folk
TTITLE0=Songbird
TTITLE1=Wayfaring Stranger
TTITLE2=People Get Ready
TTITLE3=True Colours
TTITLE4=Who Knows Where the Time Goes
TTITLE5=Over the Rainbow
TTITLE6=Kathy's Song
TTITLE7=San Francisco Bay Blues
TTITLE8=Wade in the Water
TTITLE9=Time Afer Time
TTITLE10=Autumn Leaves
TTITLE11=I know You by Heart
EXTD=
EXTT0=
EXTT1=
EXTT2=
EXTT3=
EXTT4=
EXTT5=
EXTT6=
EXTT7=
EXTT8=
EXTT9=
EXTT10=
EXTT11=
PLAYORDER=
